mastitorrents.com 
http://www.mastitorrents.com/forums/index.php


Format                           : Matroska
File size                        : 698 MiB
Duration                         : 2h 42mn
Overall bit rate                 : 599 Kbps

Video
ID                               : 1
Format                           : AVC
Format/Info                      : Advanced Video Codec
Format profile                   : High@L2.1
Format settings, CABAC           : Yes
Format settings, ReFrames        : 4 frames
Muxing mode                      : Container profile=Unknown@2.1
Codec ID                         : V_MPEG4/ISO/AVC
Duration                         : 2h 42mn
Bit rate                         : 459 Kbps
Nominal bit rate                 : 470 Kbps
Width                            : 608 pixels
Height                           : 256 pixels
Display aspect ratio             : 2.35:1
Frame rate                       : 23.976 fps
Resolution                       : 8 bits
Colorimetry                      : 4:2:0
Scan type                        : Progressive
Bits/(Pixel*Frame)               : 0.123
Stream size                      : 534 MiB (77%)
Writing library                  : x264 core 98 r1649 c54c47d

Audio
ID                               : 2
Format                           : AC-3
Format/Info                      : Audio Coding 3
Codec ID                         : A_AC3
Duration                         : 2h 42mn
Bit rate mode                    : Constant
Bit rate                         : 128 Kbps
Channel(s)                       : 6 channels
Channel positions                : Front: L C R, Surround: L R, LFE
Sampling rate                    : 48.0 KHz
Stream size                      : 149 MiB (21%)
Language                         : Hindi

